<svg id="Layer_1" data-name="Layer 1" xmlns="http://www.w3.org/2000/svg" viewBox="0 0 56.68 56.68"><defs><style>.cls-1{fill:#2d2d2d;}.cls-2{fill:#cf7761;}</style></defs><circle class="cls-1" cx="28.34" cy="28.34" r="28.33"/><path class="cls-2" d="M80.23,105.11A34.83,34.83,0,0,0,67.42,92.3a34.35,34.35,0,0,0-17.59-4.71v31.74a28.32,28.32,0,0,0,35,.44A34.07,34.07,0,0,0,80.23,105.11Z" transform="translate(-39.26 -68.92)"/><path class="cls-2" d="M87.76,77.34v39.84a28.34,28.34,0,0,0,0-39.84Z" transform="translate(-39.26 -68.92)"/><path class="cls-2" d="M49.83,84.77a37.19,37.19,0,0,1,14.82,3,38,38,0,0,1,20.29,20.63V74.85a28.32,28.32,0,0,0-35.11.34Z" transform="translate(-39.26 -68.92)"/><path class="cls-2" d="M47,77.79a28.32,28.32,0,0,0,0,38.93Z" transform="translate(-39.26 -68.92)"/></svg>