<svg id="Layer_1" data-name="Layer 1" xmlns="http://www.w3.org/2000/svg" viewBox="0 0 56.68 56.68"><defs><style>.cls-1{fill:#d8d6d6;}.cls-2{fill:#2d2d2d;}</style></defs><circle class="cls-1" cx="28.33" cy="28.34" r="28.33"/><path class="cls-2" d="M80.51,105.44A34.9,34.9,0,0,0,67.7,92.63a34.35,34.35,0,0,0-17.59-4.71v31.74a28.33,28.33,0,0,0,35,.44A34.22,34.22,0,0,0,80.51,105.44Z" transform="translate(-39.54 -69.25)"/><path class="cls-2" d="M88,77.67v39.84a28.34,28.34,0,0,0,0-39.84Z" transform="translate(-39.54 -69.25)"/><path class="cls-2" d="M50.11,85.11a37.18,37.18,0,0,1,14.82,3,37.94,37.94,0,0,1,20.29,20.64V75.19a28.3,28.3,0,0,0-35.11.33Z" transform="translate(-39.54 -69.25)"/><path class="cls-2" d="M47.29,78.13a28.32,28.32,0,0,0,0,38.93Z" transform="translate(-39.54 -69.25)"/></svg>